# xmcd
#
# Track frame offsets: 
#        180
#        7875
#        24996
#        41176
#        55095
#        71146
#        86818
#        104947
#        120819
#        137889
#        159764
#        185187
#        209308
#        233429
#        252081
#        275234
#        298897
#
# Disc length: 4353 seconds
#
# Revision: 4
# Processed by: cddbd v1.5.1PL0 Copyright (c) Steve Scherf et al.
# Submitted via: ExactAudioCopy v0.95a5
#
DISCID=f810ff11
DTITLE=Van Halen - Best Of Volume 1
DYEAR=1996
DGENRE=Rock
TTITLE0=Eruption
TTITLE1=Ain't Talkin' Bout Love
TTITLE2=Runnin' With the Devil
TTITLE3=Dance the Night Away
TTITLE4=And the Cradle Will Rock...
TTITLE5=Unchained
TTITLE6=Jump
TTITLE7=Panama
TTITLE8=Why Can't This Be Love
TTITLE9=Dreams
TTITLE10=When It's Love
TTITLE11=Poundcake
TTITLE12=Right Now
TTITLE13=Can't Stop Lovin' You
TTITLE14=Humans Being
TTITLE15=Can't Get This Stuff No More
TTITLE16=Me Wise Magic
EXTD=ID3G:   0
EXTT0=
EXTT1=
EXTT2=
EXTT3=
EXTT4=
EXTT5=
EXTT6=
EXTT7=
EXTT8=
EXTT9=
EXTT10=
EXTT11=
EXTT12=
EXTT13=
EXTT14=
EXTT15=
EXTT16=
PLAYORDER=
